<svg viewBox="-221.87732763284004 -99.00000000000001 613.3221945529921 200.00000000000003" xmlns="http://www.w3.org/2000/svg" xmlns:xlink="http://www.w3.org/1999/xlink" version="1.1" class="jsx-2263963463 artboard-inner" style="width: 480px; height: 156.525px; max-height: 100%;"><g transform="translate(-10.13941698352345 48.85931558935363) scale(1.7603154485283765)" fill="#FFFFFF"><g id="line1"><path d="M33.336 0L36.936 0L36.936-20.592C36.936-29.808 29.520-35.496 21.240-35.496C15.624-35.496 11.520-32.760 9.360-30.024L9.360-56.160L5.760-56.160L5.760 0L9.360 0L9.360-24.984C11.376-29.016 16.128-32.040 21.240-32.040C27.432-32.040 33.336-27.792 33.336-20.016Z"></path><path d="M62.359 0.648C67.687 0.648 71.791-1.944 74.383-5.112L74.383 0L77.983 0L77.983-34.920L74.383-34.920L74.383-10.368C72.295-5.976 68.047-2.736 62.359-2.736C56.383-2.736 50.479-6.984 50.479-14.616L50.479-34.920L46.879-34.920L46.807-14.112C46.807-5.112 54.511 0.648 62.359 0.648Z"></path><path d="M119.030 0L122.630 0L122.630-56.160L119.030-56.160L119.030-28.656C116.006-32.904 111.470-35.496 105.566-35.496C94.910-35.496 87.206-27.432 87.206-17.496C87.206-7.560 95.054 0.576 105.566 0.576C111.038 0.576 115.646-1.728 119.030-5.760ZM105.566-2.880C97.070-2.880 90.806-9.504 90.806-17.496C90.806-25.632 96.998-32.040 105.566-32.040C111.686-32.040 116.654-28.080 119.030-22.536L119.030-11.448C116.726-6.408 111.686-2.880 105.566-2.880Z"></path><path d="M163.678 0L167.278 0L167.278-56.160L163.678-56.160L163.678-28.656C160.654-32.904 156.118-35.496 150.214-35.496C139.558-35.496 131.854-27.432 131.854-17.496C131.854-7.560 139.702 0.576 150.214 0.576C155.686 0.576 160.294-1.728 163.678-5.760ZM150.214-2.880C141.718-2.880 135.454-9.504 135.454-17.496C135.454-25.632 141.646-32.040 150.214-32.040C156.334-32.040 161.302-28.080 163.678-22.536L163.678-11.448C161.374-6.408 156.334-2.880 150.214-2.880Z"></path><path d="M179.741 0L183.341 0L183.341-56.160L179.741-56.160Z"></path><path d="M211.212 0.576C217.404 0.576 221.292-0.936 225.828-4.824L223.524-7.488C219.348-3.888 216.252-2.880 211.212-2.880C201.852-2.880 196.236-9.648 196.164-17.640L228.132-17.640C228.132-18.288 228.060-19.008 227.988-19.656C227.196-28.584 220.428-35.280 210.060-35.280C199.260-35.280 192.564-27.288 192.564-17.784C192.564-7.704 199.764 0.576 211.212 0.576ZM210.060-31.896C217.692-31.896 222.732-27.360 224.100-21.168L196.524-21.168C197.820-27.144 202.572-31.896 210.060-31.896Z"></path></g></g><g transform="translate(-236.52347733980372 -104.28310176143087) scale(2.105662075390934)" id="logomark"><g fill="#FFFFFF"><path d="M50 70.433c-7.473 0-13.529 6.058-13.529 13.529 0 7.473 6.057 13.529 13.529 13.529s13.529-6.057 13.529-13.529c0-7.472-6.056-13.529-13.529-13.529zm0-40.866c7.473 0 13.529-6.057 13.529-13.529 0-7.472-6.057-13.529-13.529-13.529S36.471 8.566 36.471 16.038c0 7.473 6.056 13.529 13.529 13.529zm36.207 15.386c6.494-3.697 8.761-11.958 5.063-18.452-3.696-6.494-11.956-8.76-18.451-5.063-6.492 3.697-8.761 11.958-5.063 18.452 3.698 6.494 11.959 8.76 18.451 5.063zM13.793 55.047C7.3 58.744 5.033 67.006 8.73 73.499c3.696 6.493 11.958 8.76 18.45 5.063 6.494-3.697 8.761-11.957 5.063-18.452-3.695-6.494-11.957-8.76-18.45-5.063zM50 32.721c-9.543 0-17.279 7.735-17.279 17.279S40.457 67.279 50 67.279c9.544 0 17.279-7.735 17.279-17.279S59.544 32.721 50 32.721zM13.881 44.356c6.431 3.804 14.729 1.674 18.532-4.758 3.804-6.433 1.673-14.729-4.758-18.532-6.432-3.805-14.729-1.674-18.532 4.759-3.805 6.431-1.675 14.727 4.758 18.531zm72.238 11.287c-6.432-3.804-14.728-1.673-18.532 4.759-3.805 6.431-1.674 14.729 4.758 18.531 6.431 3.805 14.729 1.675 18.532-4.758 3.805-6.432 1.674-14.728-4.758-18.532z"></path></g></g></svg>